# This file uses centimeters as units for non-parametric coordinates.

mtllib caja.mtl
v -0.000000 -3.280694 3.844093
v 0.000000 8.938655 4.211875
v -9.136940 4.549506 4.211875
v 0.000000 4.549503 -1.192303
v 9.136940 4.549506 4.211875
v -9.136940 7.355148 4.211875
v -9.092399 7.705992 4.211875
v -8.760990 8.003423 4.211875
v -8.168483 8.868868 4.211875
v -4.804881 8.938655 4.211875
v 4.804881 8.938655 4.211875
v 8.168483 8.868868 4.211875
v 8.760990 8.003423 4.211875
v 9.092399 7.705992 4.211875
v 9.136940 7.355148 4.211875
v -0.000000 -1.786219 0.040719
v 8.038147 4.549504 0.125421
v 8.038147 6.855186 0.125421
v 7.993598 7.206028 0.125421
v 7.662191 7.503460 0.125421
v 7.069685 8.368906 0.125421
v 4.098225 8.438692 0.125421
v 0.000000 8.438692 0.125421
v -4.098225 8.438692 0.125421
v -7.069685 8.368906 0.125421
v -7.662191 7.503460 0.125421
v -7.993598 7.206028 0.125421
v -8.038147 6.855186 0.125421
v -8.038147 4.549504 0.125421
v 0.000000 1.660217 -1.192303
v 0.000000 1.636223 -1.192303
v 0.000000 1.614519 -1.192303
v 0.000000 1.597178 -1.192303
v 0.000000 1.585856 -1.192303
v -0.000000 -1.224931 -1.192303
v 0.000000 7.532316 -1.192303
v 0.000000 7.556042 -1.192303
v 0.000000 7.577790 -1.192303
v 0.000000 7.622047 -1.192303
v 0.000000 8.003231 -1.192303
v 0.000000 8.281436 -1.192303
v 3.875859 8.281366 -1.192303
v 3.871616 7.998928 -1.192303
v 3.867345 7.619188 -1.192303
v 3.863399 7.578145 -1.192303
v 3.860100 7.556632 -1.192303
v 3.857720 7.533104 -1.192303
v -4.862651 4.549503 -1.192303
v -4.886256 4.549503 -1.192303
v -4.908024 4.549503 -1.192303
v -4.926260 4.549503 -1.192303
v -4.939545 4.549503 -1.192303
v -7.691979 4.549503 -1.192303
v 4.862651 4.549503 -1.192303
v 4.886256 4.549503 -1.192303
v 4.908024 4.549503 -1.192303
v 4.926260 4.549503 -1.192303
v 4.939545 4.549503 -1.192303
v 7.691979 4.549503 -1.192303
v -7.691877 6.697631 -1.192303
v -4.939512 6.694731 -1.192303
v -4.926290 6.691922 -1.192303
v -4.908136 6.689422 -1.192303
v -4.886456 6.687425 -1.192303
v -4.862925 6.686085 -1.192303
v -3.857720 7.533104 -1.192303
v -3.860100 7.556632 -1.192303
v -3.863399 7.578145 -1.192303
v -3.867345 7.619188 -1.192303
v -3.871616 7.998928 -1.192303
v -3.875859 8.281366 -1.192303
v 4.862925 6.686085 -1.192303
v 4.886456 6.687425 -1.192303
v 4.908136 6.689422 -1.192303
v 4.926290 6.691922 -1.192303
v 4.939512 6.694731 -1.192303
v 7.691877 6.697631 -1.192303
v -4.289134 7.467193 -1.192303
v -4.296947 7.489619 -1.192303
v -4.304947 7.510028 -1.192303
v -4.312508 7.526823 -1.192303
v -4.319038 7.538690 -1.192303
v -6.723545 8.211408 -1.192303
v -4.645074 7.282292 -1.192303
v -4.660999 7.300389 -1.192303
v -4.675979 7.316915 -1.192303
v -4.688884 7.330626 -1.192303
v -4.698753 7.340501 -1.192303
v -7.315711 7.345808 -1.192303
v -4.835935 7.014168 -1.192303
v -4.859015 7.022826 -1.192303
v -4.880226 7.031168 -1.192303
v -4.897952 7.038557 -1.192303
v -4.910861 7.044441 -1.192303
v -7.647140 7.048388 -1.192303
v 4.836941 7.014536 -1.192303
v 4.859704 7.023078 -1.192303
v 4.880629 7.031316 -1.192303
v 4.898135 7.038625 -1.192303
v 4.910908 7.044458 -1.192303
v 7.647140 7.048388 -1.192303
v 4.644524 7.281660 -1.192303
v 4.660622 7.299954 -1.192303
v 4.675758 7.316661 -1.192303
v 4.688784 7.330512 -1.192303
v 4.698727 7.340470 -1.192303
v 7.315711 7.345808 -1.192303
v 4.288673 7.465791 -1.192303
v 4.296631 7.488656 -1.192303
v 4.304762 7.509463 -1.192303
v 4.312424 7.526566 -1.192303
v 4.319016 7.538625 -1.192303
v 6.723545 8.211408 -1.192303
v -8.912973 -3.280687 3.844093
v -8.998684 0.050771 4.211875
v -9.071342 0.083590 4.211875
v -9.119892 0.132707 4.211875
v -9.136940 0.190644 4.211875
v -8.045372 1.702102 0.152300
v -8.025438 1.645999 0.141952
v -7.974148 1.598790 0.133243
v -7.899004 1.567386 0.127450
v -7.810996 -1.786212 0.040719
v 9.136940 0.190644 4.211875
v 9.119892 0.132707 4.211875
v 9.071342 0.083590 4.211875
v 8.998684 0.050771 4.211875
v 8.912973 -3.280694 3.844093
v 7.810996 -1.786219 0.040719
v 7.899004 1.567386 0.127450
v 7.974148 1.598790 0.133243
v 8.025438 1.645999 0.141952
v 8.045372 1.702102 0.152300
v -4.735064 1.632357 -1.192303
v -4.792832 1.643129 -1.192303
v -4.841815 1.673898 -1.192303
v -4.874550 1.719975 -1.192303
v -4.886049 1.774339 -1.192303
v -4.714466 1.655241 -1.192303
v -4.862651 1.799791 -1.192303
v -4.851368 1.744438 -1.192303
v -4.819239 1.697523 -1.192303
v -4.771163 1.666199 -1.192303
v -4.755584 1.611960 -1.192303
v -4.813887 1.622675 -1.192303
v -4.863320 1.653249 -1.192303
v -4.896354 1.699026 -1.192303
v -4.907955 1.753030 -1.192303
v -4.774609 1.595904 -1.192303
v -4.832697 1.606707 -1.192303
v -4.881944 1.637500 -1.192303
v -4.914851 1.683595 -1.192303
v -4.926404 1.737970 -1.192303
v -4.790282 1.585551 -1.192303
v -4.847525 1.596551 -1.192303
v -4.896052 1.627884 -1.192303
v -4.928475 1.674778 -1.192303
v -4.939857 1.730093 -1.192303
v -7.462229 -1.223737 -1.192303
v -7.550430 1.592820 -1.192303
v -7.625204 1.624497 -1.192303
v -7.675159 1.671903 -1.192303
v -7.692697 1.727821 -1.192303
v 4.862651 1.799791 -1.192303
v 4.714466 1.655241 -1.192303
v 4.771163 1.666199 -1.192303
v 4.819239 1.697523 -1.192303
v 4.851368 1.744438 -1.192303
v 4.735064 1.632357 -1.192303
v 4.792832 1.643129 -1.192303
v 4.841815 1.673898 -1.192303
v 4.874550 1.719975 -1.192303
v 4.886049 1.774339 -1.192303
v 4.755584 1.611960 -1.192303
v 4.813887 1.622675 -1.192303
v 4.863320 1.653249 -1.192303
v 4.896354 1.699026 -1.192303
v 4.907955 1.753030 -1.192303
v 4.774609 1.595904 -1.192303
v 4.832697 1.606707 -1.192303
v 4.881944 1.637500 -1.192303
v 4.914851 1.683595 -1.192303
v 4.926404 1.737970 -1.192303
v 4.790282 1.585551 -1.192303
v 4.847525 1.596551 -1.192303
v 4.896052 1.627884 -1.192303
v 4.928475 1.674778 -1.192303
v 4.939857 1.730093 -1.192303
v 7.692697 1.727821 -1.192303
v 7.675159 1.671903 -1.192303
v 7.625204 1.624497 -1.192303
v 7.550430 1.592820 -1.192303
v 7.462229 -1.223737 -1.192303
vt 0.500000 0.250000
vt 0.375000 0.220536
vt 0.625000 0.125000
vt 0.606073 0.250000
vt 0.393927 0.250000
vt 0.625000 0.220536
vt 0.375000 0.235262
vt 0.375000 0.250000
vt 0.384459 0.250000
vt 0.615541 0.250000
vt 0.625000 0.250000
vt 0.625000 0.235262
vt 0.625000 0.437634
vt 0.187367 0.250000
vt 0.397205 0.437634
vt 0.500000 0.496651
vt 0.812634 0.214507
vt 0.128237 0.212608
vt 0.500000 0.437634
vt 0.601763 0.496677
vt 0.386125 0.437295
vt 0.398237 0.496677
vt 0.375000 0.437634
vt 0.386650 0.496297
vt 0.187367 0.232246
vt 0.128200 0.250000
vt 0.187367 0.214508
vt 0.128205 0.231296
vt 0.812634 0.232246
vt 0.871763 0.212608
vt 0.812634 0.250000
vt 0.871795 0.231296
vt 0.613447 0.437819
vt 0.625000 0.496800
vt 0.602795 0.437634
vt 0.612788 0.496986
vt 0.500000 0.625000
vt 0.398473 0.502442
vt 0.387083 0.501533
vt 0.376628 0.502806
vt 0.500000 0.503006
vt 0.623237 0.537278
vt 0.623371 0.519692
vt 0.623356 0.502836
vt 0.375000 0.496800
vt 0.376652 0.519704
vt 0.376759 0.537275
vt 0.871800 0.250000
vt 0.612416 0.502180
vt 0.601435 0.502554
vt 0.500000 0.501735
vt 0.500000 0.500464
vt 0.500000 0.499193
vt 0.500000 0.497924
vt 0.601678 0.497856
vt 0.601593 0.499030
vt 0.601520 0.500203
vt 0.601465 0.501377
vt 0.125000 0.125000
vt 0.875000 0.123642
vt 0.127158 0.212569
vt 0.126080 0.212531
vt 0.375000 0.537496
vt 0.125000 0.212504
vt 0.375878 0.537398
vt 0.398462 0.501285
vt 0.398425 0.500134
vt 0.398370 0.498983
vt 0.398304 0.497832
vt 0.624120 0.537400
vt 0.875000 0.212504
vt 0.625000 0.537496
vt 0.873920 0.212532
vt 0.872841 0.212570
vt 0.386966 0.500643
vt 0.386831 0.499764
vt 0.386679 0.498895
vt 0.386668 0.497593
vt 0.375824 0.501683
vt 0.127656 0.246813
vt 0.375000 0.500531
vt 0.127838 0.247881
vt 0.375000 0.499281
vt 0.128019 0.248942
vt 0.375000 0.498038
vt 0.375810 0.519233
vt 0.125000 0.231244
vt 0.375000 0.518756
vt 0.126097 0.231246
vt 0.127160 0.231265
vt 0.624451 0.518978
vt 0.875000 0.231244
vt 0.625000 0.518756
vt 0.873908 0.231245
vt 0.872844 0.231264
vt 0.718463 0.407440
vt 0.811639 0.313967
vt 0.872345 0.246805
vt 0.824517 0.299837
vt 0.872162 0.247878
vt 0.724496 0.398578
vt 0.871981 0.248942
vt 0.612652 0.501161
vt 0.613069 0.499994
vt 0.613216 0.499125
vt 0.613325 0.497724
vt 0.375000 0.004196
vt 0.621936 1.000000
vt 0.376822 0.740871
vt 0.380576 0.746962
vt 0.378064 1.000000
vt 0.621468 0.812366
vt 0.500000 1.000000
vt 0.625000 0.004196
vt 0.812633 0.125000
vt 0.188601 0.006086
vt 0.375000 0.125000
vt 0.379735 0.748471
vt 0.378881 0.749932
vt 0.378852 0.751177
vt 0.378785 0.752315
vt 0.378746 0.753388
vt 0.378532 0.812366
vt 0.500000 0.812366
vt 0.621255 0.753388
vt 0.128377 0.006154
vt 0.187367 0.125000
vt 0.811399 0.006086
vt 0.871745 0.125000
vt 0.500000 0.753538
vt 0.621200 0.751757
vt 0.500000 0.752178
vt 0.621142 0.750026
vt 0.499999 0.750825
vt 0.620567 0.749066
vt 0.500000 0.748110
vt 0.499999 0.749469
vt 0.619995 0.748038
vt 0.871623 0.006155
vt 0.873374 0.123826
vt 0.873262 0.006039
vt 0.875000 0.122652
vt 0.625000 0.744099
vt 0.625000 0.627348
vt 0.625000 0.626358
vt 0.623178 0.740871
vt 0.623830 0.742075
vt 0.624463 0.743158
vt 0.624090 0.625680
vt 0.128298 0.007082
vt 0.128255 0.125000
vt 0.128218 0.008049
vt 0.127173 0.125001
vt 0.128135 0.009192
vt 0.126088 0.125001
vt 0.375901 0.742468
vt 0.375000 0.625000
vt 0.375911 0.624999
vt 0.376822 0.625000
vt 0.623178 0.625000
vt 0.500000 0.746753
vt 0.375000 0.743924
vt 0.619416 0.746962
vt 0.875000 0.005901
vt 0.376543 0.503486
vt 0.375000 0.000000
vt 0.375000 0.002084
vt 0.188072 0.003051
vt 0.375000 0.812366
vt 0.187367 0.000000
vt 0.376770 0.812686
vt 0.625000 0.505347
vt 0.625000 1.000000
vt 0.623457 1.000000
vt 0.623229 0.812434
vt 0.812634 0.000000
vt 0.625000 0.812366
vt 0.811928 0.002168
vt 0.377892 0.748920
vt 0.375900 0.748483
vt 0.375823 0.745458
vt 0.376810 0.743692
vt 0.376822 0.746969
vt 0.378541 0.747482
vt 0.377427 0.750233
vt 0.128293 0.003346
vt 0.375000 0.749947
vt 0.128213 0.006301
vt 0.375000 0.746902
vt 0.377110 0.751405
vt 0.128326 0.002138
vt 0.375000 0.751188
vt 0.128319 0.004964
vt 0.376921 0.752454
vt 0.128355 0.001036
vt 0.375000 0.752319
vt 0.128425 0.003944
vt 0.376870 0.753442
vt 0.128383 0.000000
vt 0.375000 0.753383
vt 0.128558 0.003149
vt 0.621149 0.746975
vt 0.623178 0.746969
vt 0.623440 0.744094
vt 0.621802 0.748303
vt 0.623816 0.748035
vt 0.624018 0.745250
vt 0.622365 0.749521
vt 0.624436 0.749053
vt 0.624553 0.746262
vt 0.622810 0.750719
vt 0.625000 0.750000
vt 0.875000 0.000000
vt 0.875000 0.002978
vt 0.625000 0.747022
vt 0.623022 0.752101
vt 0.873256 -0.000000
vt 0.625000 0.751744
vt 0.873197 0.002958
vt 0.871581 0.003058
vt 0.625000 0.753383
vt 0.871617 0.000000
vt 0.623124 0.753418
vn -0.965464 -0.014326 0.260141
vn -0.966021 -0.000020 0.258463
vn -0.965699 0.000000 0.259664
vn -0.965057 -0.016565 0.261518
vn -0.831696 -0.478204 0.282140
vn -0.829418 -0.482974 0.280719
vn -0.749612 -0.601949 0.275208
vn -0.754546 -0.596162 0.274320
vn -0.275118 -0.942748 0.188508
vn -0.224072 -0.958586 0.175799
vn -0.010251 -0.992271 0.123665
vn -0.008702 -0.992407 0.122687
vn 0.000000 -0.992599 0.121441
vn 0.000000 -0.992678 0.120788
vn 0.010251 -0.992271 0.123665
vn 0.008702 -0.992407 0.122687
vn 0.275118 -0.942748 0.188508
vn 0.224072 -0.958586 0.175799
vn 0.749612 -0.601949 0.275208
vn 0.754546 -0.596162 0.274320
vn 0.831696 -0.478204 0.282140
vn 0.829417 -0.482974 0.280719
vn 0.965057 -0.016565 0.261518
vn 0.965464 -0.014326 0.260141
vn 0.965699 0.000000 0.259664
vn 0.966021 -0.000020 0.258463
vn 0.000000 -0.950740 0.309990
vn 0.000000 -0.000001 1.000000
vn -0.000000 -0.000001 1.000000
vn -0.008412 -0.941875 0.335859
vn 0.000000 -0.000001 1.000000
vn -0.000000 -0.000001 1.000000
vn -0.000000 -0.000004 1.000000
vn -0.000000 -0.000004 1.000000
vn -0.000000 -0.000001 1.000000
vn 0.000000 -0.000002 1.000000
vn 0.000000 0.000000 1.000000
vn -0.000000 0.000000 1.000000
vn 0.398554 -0.000039 0.917145
vn 0.000000 0.000000 1.000000
vn 0.000000 -0.000000 1.000000
vn 0.420600 -0.006545 0.907223
vn 0.000009 -0.000000 1.000000
vn 0.000008 -0.000000 1.000000
vn 0.000005 -0.000000 1.000000
vn 0.000005 -0.000000 1.000000
vn 0.000002 -0.000000 1.000000
vn 0.000003 -0.000000 1.000000
vn -0.000000 -0.000000 1.000000
vn -0.000000 0.000000 1.000000
vn 0.008412 -0.941877 0.335852
vn -0.398554 -0.000039 0.917145
vn -0.420599 -0.006545 0.907223
vn 0.198500 -0.852180 0.484135
vn 0.461759 -0.362971 0.809340
vn 0.451492 -0.263875 0.852364
vn -0.451495 -0.263876 0.852363
vn -0.461770 -0.362979 0.809330
vn -0.198500 -0.852180 0.484136
vn -0.000000 0.000000 1.000000
vn 0.000000 0.000000 1.000000
vn 0.000000 0.000000 1.000000
vn 0.000000 0.000000 1.000000
vn 0.000000 0.000000 1.000000
vn 0.000000 -0.000000 1.000000
vn 0.000000 0.000000 1.000000
vn -0.000000 0.000000 1.000000
vn -0.000000 0.000000 1.000000
vn -0.000000 0.000000 1.000000
vn 0.000000 -0.000000 1.000000
vn 0.000000 -0.000001 1.000000
vn 0.000000 -0.000004 1.000000
vn -0.000000 -0.000001 1.000000
vn -0.000000 0.000000 1.000000
vn -0.000000 -0.000000 1.000000
vn -0.000009 -0.000000 1.000000
vn -0.000008 -0.000000 1.000000
vn -0.000005 -0.000000 1.000000
vn -0.000006 -0.000000 1.000000
vn -0.000002 -0.000000 1.000000
vn -0.000003 -0.000000 1.000000
vn 0.000000 -0.000000 1.000000
vn 0.000001 -0.000003 1.000000
vn 0.000002 -0.000006 1.000000
vn 0.000001 -0.000001 1.000000
vn -0.000000 -0.000000 1.000000
vn -0.000008 -0.000004 1.000000
vn -0.000007 -0.000003 1.000000
vn -0.000003 -0.000000 1.000000
vn 0.000000 -0.000000 1.000000
vn 0.000009 -0.000012 1.000000
vn 0.000004 -0.000006 1.000000
vn 0.000001 -0.000001 1.000000
vn 0.000000 -0.000000 1.000000
vn 0.000009 -0.000005 1.000000
vn 0.000005 -0.000002 1.000000
vn 0.000003 -0.000000 1.000000
vn -0.000000 -0.000000 1.000000
vn -0.000007 -0.000007 1.000000
vn -0.000006 -0.000006 1.000000
vn -0.000002 -0.000001 1.000000
vn -0.000000 -0.000000 1.000000
vn -0.000000 -0.000002 1.000000
vn -0.000003 -0.000007 1.000000
vn -0.000001 -0.000002 1.000000
vn 0.965053 0.006664 0.261970
vn 0.772999 0.498007 0.393016
vn 0.801646 0.480681 0.355401
vn 0.965683 0.003748 0.259697
vn 0.512155 0.750993 0.416782
vn 0.517846 0.774703 0.362865
vn 0.960348 0.025784 0.277610
vn 0.960422 0.035744 0.276245
vn 0.356620 0.831375 0.426189
vn 0.354482 0.828716 0.433096
vn -0.356620 0.831375 0.426189
vn -0.960348 0.025784 0.277610
vn -0.960422 0.035744 0.276245
vn -0.354482 0.828716 0.433096
vn -0.512155 0.750993 0.416783
vn -0.517846 0.774703 0.362865
vn -0.772999 0.498007 0.393016
vn -0.801646 0.480681 0.355401
vn -0.965053 0.006664 0.261970
vn -0.965683 0.003748 0.259697
vn 0.000003 0.000000 1.000000
vn 0.000002 0.000001 1.000000
vn -0.000000 -0.000000 1.000000
vn -0.000000 -0.000000 1.000000
vn 0.000001 0.000001 1.000000
vn -0.000000 -0.000000 1.000000
vn 0.000000 0.000001 1.000000
vn -0.000000 0.000000 1.000000
vn 0.000000 0.000003 1.000000
vn -0.000000 -0.000000 1.000000
vn -0.000000 -0.000000 1.000000
vn -0.000000 -0.000000 1.000000
vn -0.428790 0.287532 0.856425
vn -0.400786 0.002422 0.916169
vn -0.000000 0.000000 1.000000
vn -0.325879 0.535935 0.778831
vn -0.000000 0.000000 1.000000
vn -0.614345 0.027999 0.788541
vn -0.000000 0.000000 1.000000
vn -0.236089 0.524842 0.817804
vn 0.000000 0.926136 0.377191
vn 0.000000 0.930727 0.365714
vn 0.000000 0.000001 1.000000
vn -0.000000 -0.000000 1.000000
vn 0.000000 0.000004 1.000000
vn -0.000000 0.000005 1.000000
vn 0.000000 0.000016 1.000000
vn 0.000000 0.000011 1.000000
vn 0.000000 0.000000 1.000000
vn 0.000000 0.000000 1.000000
vn 0.236089 0.524843 0.817804
vn 0.000000 0.401107 0.916031
vn 0.400786 0.002422 0.916169
vn -0.000000 0.000016 1.000000
vn 0.000000 0.000004 1.000000
vn -0.000000 0.000003 1.000000
vn 0.000000 -0.000000 1.000000
vn -0.000013 0.000000 1.000000
vn -0.000004 0.000000 1.000000
vn 0.000000 -0.000000 1.000000
vn -0.000003 0.000000 1.000000
vn 0.000000 -0.000000 1.000000
vn 0.000014 0.000000 1.000000
vn 0.000004 0.000000 1.000000
vn 0.000000 0.000000 1.000000
vn 0.000000 -0.000000 1.000000
vn 0.000000 -0.000000 1.000000
vn 0.000003 0.000002 1.000000
vn 0.000003 0.000003 1.000000
vn 0.000001 0.000003 1.000000
vn 0.000007 0.000004 1.000000
vn 0.000006 0.000006 1.000000
vn 0.000004 0.000009 1.000000
vn 0.000000 -0.000000 1.000000
vn 0.000000 0.000000 1.000000
vn 0.000000 0.000000 1.000000
vn 0.428790 0.287532 0.856425
vn 0.325879 0.535935 0.778831
vn 0.614344 0.027999 0.788541
vn -0.000002 0.000001 1.000000
vn 0.000000 0.000001 1.000000
vn 0.000001 0.000001 1.000000
vn -0.000003 0.000002 1.000000
vn -0.000003 0.000003 1.000000
vn -0.000000 0.000003 1.000000
vn -0.000006 0.000004 1.000000
vn -0.000005 0.000006 1.000000
vn -0.000003 0.000009 1.000000
s 1
usemtl initialShadingGroup
f 18/17/1 17/115/2 5/3/3 15/6/4
f 15/6/4 14/12/5 19/29/6 18/17/1
f 14/12/5 13/11/7 20/31/8 19/29/6
f 13/11/7 12/10/9 21/33/10 20/13/8
f 12/10/9 11/4/11 22/35/12 21/33/10
f 2/1/13 23/19/14 22/35/12 11/4/11
f 10/5/15 24/15/16 23/19/14 2/1/13
f 10/5/15 9/9/17 25/21/18 24/15/16
f 9/9/17 8/8/19 26/23/20 25/21/18
f 8/8/19 7/7/21 27/25/22 26/14/20
f 7/7/21 6/2/23 28/27/24 27/25/22
f 3/117/25 29/127/26 28/27/24 6/2/23
f 41/16/27 40/54/28 43/55/29 42/20/30
f 40/54/28 39/53/31 44/56/32 43/55/29
f 39/53/31 38/52/33 45/57/34 44/56/32
f 38/52/33 37/51/35 46/58/36 45/57/34
f 37/51/35 36/41/37 47/50/38 46/58/36
f 53/151/39 52/153/40 61/61/41 60/18/42
f 52/153/40 51/155/43 62/62/44 61/61/41
f 51/155/43 50/59/45 63/64/46 62/62/44
f 50/157/45 49/158/47 64/65/48 63/63/46
f 49/158/47 48/159/49 65/47/50 64/65/48
f 23/19/14 24/15/16 71/22/51 41/16/27
f 59/129/52 17/115/2 18/17/1 77/30/53
f 28/27/24 29/127/26 53/151/39 60/18/42
f 22/35/12 23/19/14 41/16/27 42/20/30
f 24/15/16 25/21/18 83/24/54 71/22/51
f 25/21/18 26/23/20 89/45/55 83/24/54
f 26/14/20 27/25/22 95/28/56 89/26/55
f 27/25/22 28/27/24 60/18/42 95/28/56
f 18/17/1 19/29/6 101/32/57 77/30/53
f 19/29/6 20/31/8 107/48/58 101/32/57
f 20/13/8 21/33/10 113/36/59 107/34/58
f 21/33/10 22/35/12 42/20/30 113/36/59
f 65/47/50 48/159/49 4/37/60 36/41/37 66/38/61 78/39/62 84/40/63 90/46/64
f 47/50/38 36/41/37 4/37/60 54/160/65 72/42/66 96/43/67 102/44/68 108/49/69
f 40/54/28 41/16/27 71/22/51 70/69/70
f 39/53/31 40/54/28 70/69/70 69/68/71
f 38/52/33 39/53/31 69/68/71 68/67/72
f 36/41/37 37/51/35 67/66/73 66/38/61
f 37/51/35 38/52/33 68/67/72 67/66/73
f 58/140/74 59/129/52 77/30/53 76/74/75
f 57/142/76 58/140/74 76/74/75 75/73/77
f 56/60/78 57/142/76 75/73/77 74/71/79
f 54/160/65 55/149/80 73/70/81 72/42/66
f 55/149/80 56/145/78 74/72/79 73/70/81
f 70/69/70 71/22/51 83/24/54 82/78/82
f 69/68/71 70/69/70 82/78/82 81/77/83
f 68/67/72 69/68/71 81/77/83 80/76/84
f 66/38/61 67/66/73 79/75/85 78/39/62
f 67/66/73 68/67/72 80/76/84 79/75/85
f 76/74/75 77/30/53 101/32/57 100/95/86
f 75/73/77 76/74/75 100/95/86 99/94/87
f 74/71/79 75/73/77 99/94/87 98/92/88
f 72/42/66 73/70/81 97/91/89 96/43/67
f 73/70/81 74/72/79 98/93/88 97/91/89
f 82/78/82 83/24/54 89/45/55 88/85/90
f 81/77/83 82/78/82 88/85/90 87/83/91
f 80/76/84 81/77/83 87/83/91 86/81/92
f 78/39/62 79/75/85 85/79/93 84/40/63
f 79/75/85 80/76/84 86/81/92 85/79/93
f 88/84/90 89/26/55 95/28/56 94/90/94
f 87/82/91 88/84/90 94/90/94 93/89/95
f 86/80/92 87/82/91 93/89/95 92/87/96
f 84/40/63 85/79/93 91/86/97 90/46/64
f 85/79/93 86/81/92 92/88/96 91/86/97
f 60/18/42 61/61/41 94/90/94 95/28/56
f 61/61/41 62/62/44 93/89/95 94/90/94
f 62/62/44 63/64/46 92/87/96 93/89/95
f 63/63/46 64/65/48 91/86/97 92/88/96
f 64/65/48 65/47/50 90/46/64 91/86/97
f 100/95/86 101/32/57 107/48/58 106/102/98
f 99/94/87 100/95/86 106/102/98 105/100/99
f 98/92/88 99/94/87 105/100/99 104/98/100
f 96/43/67 97/91/89 103/96/101 102/44/68
f 97/91/89 98/93/88 104/97/100 103/96/101
f 106/101/98 107/34/58 113/36/59 112/106/102
f 105/99/99 106/101/98 112/106/102 111/105/103
f 104/97/100 105/99/99 111/105/103 110/104/104
f 102/44/68 103/96/101 109/103/105 108/49/69
f 103/96/101 104/97/100 110/104/104 109/103/105
f 42/20/30 43/55/29 112/106/102 113/36/59
f 43/55/29 44/56/32 111/105/103 112/106/102
f 44/56/32 45/57/34 110/104/104 111/105/103
f 45/57/34 46/58/36 109/103/105 110/104/104
f 46/58/36 47/50/38 108/49/69 109/103/105
f 118/107/106 117/167/107 120/168/108 119/116/109
f 117/167/107 116/166/110 121/170/111 120/168/108
f 116/166/110 115/165/112 122/171/113 121/169/111
f 115/165/112 114/111/114 123/123/115 122/171/113
f 128/108/116 127/174/117 130/175/118 129/112/119
f 127/174/117 126/173/120 131/177/121 130/175/118
f 126/173/120 125/172/122 132/178/123 131/176/121
f 125/172/122 124/114/124 133/128/125 132/178/123
f 138/156/126 137/181/127 141/182/128 140/109/129
f 137/181/127 136/180/130 142/183/131 141/182/128
f 136/180/130 135/179/132 143/184/133 142/183/131
f 135/179/132 134/118/134 139/110/135 143/184/133
f 188/141/136 187/219/137 190/220/138 189/139/139
f 187/219/137 186/217/140 191/222/141 190/220/138
f 186/218/140 185/216/142 192/223/143 191/221/141
f 185/216/142 184/131/144 193/125/145 192/223/143
f 16/124/146 123/123/115 114/111/114 1/113/147
f 129/112/119 16/124/146 1/113/147 128/108/116
f 133/128/125 124/114/124 5/3/3 17/115/2
f 119/116/109 29/127/26 3/117/25 118/107/106
f 139/110/135 134/118/134 31/136/148 30/161/149
f 134/118/134 144/119/150 32/137/151 31/136/148
f 144/119/150 149/120/152 33/134/153 32/137/151
f 149/120/152 154/121/154 34/132/155 33/134/153
f 154/121/154 159/122/156 35/130/157 34/132/155
f 159/122/156 123/123/115 16/124/146 35/130/157
f 35/130/157 16/124/146 129/112/119 193/125/145
f 163/126/158 53/151/39 29/127/26 119/116/109
f 133/128/125 17/115/2 59/129/52 189/139/139
f 34/132/155 35/130/157 193/125/145 184/131/144
f 33/134/153 34/132/155 184/131/144 179/133/159
f 32/137/151 33/134/153 179/133/159 174/135/160
f 30/161/149 31/136/148 169/138/161 165/163/162
f 31/136/148 32/137/151 174/135/160 169/138/161
f 188/141/136 189/139/139 59/129/52 58/140/74
f 183/164/163 188/141/136 58/140/74 57/142/76
f 178/148/164 183/143/163 57/144/76 56/145/78
f 164/146/165 173/147/166 55/149/80 54/160/65
f 173/147/166 178/148/164 56/145/78 55/149/80
f 163/126/158 158/150/167 52/153/40 53/151/39
f 158/150/167 153/152/168 51/155/43 52/153/40
f 153/152/168 148/154/169 50/59/45 51/155/43
f 148/162/169 138/156/126 49/158/47 50/157/45
f 138/156/126 140/109/129 48/159/49 49/158/47
f 139/110/135 30/161/149 4/37/60 48/159/49 140/109/129 141/182/128 142/183/131 143/184/133
f 164/146/165 54/160/65 4/37/60 30/161/149 165/163/162 166/202/170 167/203/171 168/204/172
f 137/181/127 138/156/126 148/162/169 147/189/173
f 136/180/130 137/181/127 147/189/173 146/187/174
f 134/118/134 135/179/132 145/185/175 144/119/150
f 135/179/132 136/180/130 146/187/174 145/185/175
f 147/188/173 148/154/169 153/152/168 152/193/176
f 146/186/174 147/188/173 152/193/176 151/191/177
f 144/119/150 145/185/175 150/190/178 149/120/152
f 145/185/175 146/187/174 151/192/177 150/190/178
f 152/193/176 153/152/168 158/150/167 157/197/179
f 151/191/177 152/193/176 157/197/179 156/195/180
f 149/120/152 150/190/178 155/194/181 154/121/154
f 150/190/178 151/192/177 156/196/180 155/194/181
f 157/197/179 158/150/167 163/126/158 162/201/182
f 156/195/180 157/197/179 162/201/182 161/199/183
f 154/121/154 155/194/181 160/198/184 159/122/156
f 155/194/181 156/196/180 161/200/183 160/198/184
f 119/116/109 120/168/108 162/201/182 163/126/158
f 120/168/108 121/170/111 161/199/183 162/201/182
f 121/169/111 122/171/113 160/198/184 161/200/183
f 122/171/113 123/123/115 159/122/156 160/198/184
f 164/146/165 168/204/172 172/207/185 173/147/166
f 168/204/172 167/203/171 171/206/186 172/207/185
f 167/203/171 166/202/170 170/205/187 171/206/186
f 166/202/170 165/163/162 169/138/161 170/205/187
f 173/147/166 172/207/185 177/210/188 178/148/164
f 172/207/185 171/206/186 176/209/189 177/210/188
f 171/206/186 170/205/187 175/208/190 176/209/189
f 170/205/187 169/138/161 174/135/160 175/208/190
f 178/148/164 177/210/188 182/215/191 183/143/163
f 177/210/188 176/209/189 181/212/192 182/215/191
f 176/209/189 175/208/190 180/211/193 181/212/192
f 175/208/190 174/135/160 179/133/159 180/211/193
f 183/164/163 182/214/191 187/219/137 188/141/136
f 182/214/191 181/213/192 186/217/140 187/219/137
f 181/212/192 180/211/193 185/216/142 186/218/140
f 180/211/193 179/133/159 184/131/144 185/216/142
f 129/112/119 130/175/118 192/223/143 193/125/145
f 130/175/118 131/177/121 191/221/141 192/223/143
f 131/176/121 132/178/123 190/220/138 191/222/141
f 132/178/123 133/128/125 189/139/139 190/220/138
